<?xml version="1.0" encoding="UTF-8" ?>
<!DOCTYPE svg PUBLIC "-//W3C//DTD SVG 1.1//EN" "http://www.w3.org/Graphics/SVG/1.1/DTD/svg11.dtd">
<svg width="295pt" height="295pt" viewBox="0 0 295 295" version="1.1" xmlns="http://www.w3.org/2000/svg">
<path fill="#000000" stroke="#000000" stroke-width="0.09375" opacity="1.00" d=" M 0.81 54.64 C 16.21 54.59 31.62 54.54 47.02 54.66 C 60.06 91.35 73.21 128.01 86.04 164.77 C 99.19 128.15 111.64 91.28 124.64 54.61 C 140.18 54.59 155.73 54.61 171.27 54.60 C 170.85 57.73 172.64 60.54 173.49 63.45 C 185.34 97.25 197.48 130.94 209.15 164.79 C 222.75 128.19 235.74 91.35 249.14 54.67 C 264.42 54.50 279.71 54.65 295.00 54.60 L 295.00 54.99 C 272.73 116.59 250.66 178.26 228.53 239.91 C 215.99 240.09 203.43 239.98 190.88 239.97 C 176.50 200.18 162.40 160.26 148.09 120.44 C 133.88 160.24 119.58 200.00 105.47 239.83 C 92.78 240.19 80.02 239.96 67.31 239.95 C 45.20 178.16 22.88 116.44 0.81 54.64 Z" />
</svg>
